<svg xmlns="http://www.w3.org/2000/svg" width="544" height="118" viewBox="0 0 544 118"><rect width="544" height="118" fill="#15191f"/><g fill="#c9d0d8" font-family="sans-serif" font-size="8"><g transform="translate(18 23) scale(4)"><rect x="4" y="0" width="1" height="1" fill="#777"/><rect x="2" y="1" width="1" height="1" fill="#777"/><rect x="3" y="1" width="1" height="1" fill="#777"/><rect x="4" y="1" width="1" height="1" fill="#777"/><rect x="5" y="1" width="1" height="1" fill="#777"/><rect x="6" y="1" width="1" height="1" fill="#777"/><rect x="1" y="2" width="1" height="1" fill="#777"/><rect x="2" y="2" width="1" height="1" fill="#777"/><rect x="6" y="2" width="1" height="1" fill="#777"/><rect x="7" y="2" width="1" height="1" fill="#777"/><rect x="1" y="3" width="1" height="1" fill="#777"/><rect x="7" y="3" width="1" height="1" fill="#777"/><rect x="0" y="4" width="1" height="1" fill="#777"/><rect x="1" y="4" width="1" height="1" fill="#777"/><rect x="7" y="4" width="1" height="1" fill="#777"/><rect x="8" y="4" width="1" height="1" fill="#777"/><rect x="1" y="5" width="1" height="1" fill="#777"/><rect x="7" y="5" width="1" height="1" fill="#777"/><rect x="1" y="6" width="1" height="1" fill="#777"/><rect x="2" y="6" width="1" height="1" fill="#777"/><rect x="6" y="6" width="1" height="1" fill="#777"/><rect x="7" y="6" width="1" height="1" fill="#777"/><rect x="2" y="7" width="1" height="1" fill="#777"/><rect x="3" y="7" width="1" height="1" fill="#777"/><rect x="4" y="7" width="1" height="1" fill="#777"/><rect x="5" y="7" width="1" height="1" fill="#777"/><rect x="6" y="7" width="1" height="1" fill="#777"/><rect x="4" y="8" width="1" height="1" fill="#777"/></g><text x="36" y="76" text-anchor="middle">New moon</text><g transform="translate(82 23) scale(4)"><rect x="4" y="0" width="1" height="1" fill="#fff"/><rect x="2" y="1" width="1" height="1" fill="#777"/><rect x="3" y="1" width="1" height="1" fill="#777"/><rect x="4" y="1" width="1" height="1" fill="#777"/><rect x="5" y="1" width="1" height="1" fill="#777"/><rect x="6" y="1" width="1" height="1" fill="#fff"/><rect x="1" y="2" width="1" height="1" fill="#777"/><rect x="2" y="2" width="1" height="1" fill="#777"/><rect x="3" y="2" width="1" height="1" fill="#777"/><rect x="4" y="2" width="1" height="1" fill="#777"/><rect x="5" y="2" width="1" height="1" fill="#777"/><rect x="6" y="2" width="1" height="1" fill="#777"/><rect x="7" y="2" width="1" height="1" fill="#fff"/><rect x="1" y="3" width="1" height="1" fill="#777"/><rect x="2" y="3" width="1" height="1" fill="#777"/><rect x="3" y="3" width="1" height="1" fill="#777"/><rect x="4" y="3" width="1" height="1" fill="#777"/><rect x="5" y="3" width="1" height="1" fill="#777"/><rect x="6" y="3" width="1" height="1" fill="#777"/><rect x="7" y="3" width="1" height="1" fill="#fff"/><rect x="0" y="4" width="1" height="1" fill="#777"/><rect x="1" y="4" width="1" height="1" fill="#777"/><rect x="2" y="4" width="1" height="1" fill="#777"/><rect x="3" y="4" width="1" height="1" fill="#777"/><rect x="4" y="4" width="1" height="1" fill="#777"/><rect x="5" y="4" width="1" height="1" fill="#777"/><rect x="6" y="4" width="1" height="1" fill="#777"/><rect x="7" y="4" width="1" height="1" fill="#fff"/><rect x="8" y="4" width="1" height="1" fill="#fff"/><rect x="1" y="5" width="1" height="1" fill="#777"/><rect x="2" y="5" width="1" height="1" fill="#777"/><rect x="3" y="5" width="1" height="1" fill="#777"/><rect x="4" y="5" width="1" height="1" fill="#777"/><rect x="5" y="5" width="1" height="1" fill="#777"/><rect x="6" y="5" width="1" height="1" fill="#777"/><rect x="7" y="5" width="1" height="1" fill="#fff"/><rect x="1" y="6" width="1" height="1" fill="#777"/><rect x="2" y="6" width="1" height="1" fill="#777"/><rect x="3" y="6" width="1" height="1" fill="#777"/><rect x="4" y="6" width="1" height="1" fill="#777"/><rect x="5" y="6" width="1" height="1" fill="#777"/><rect x="6" y="6" width="1" height="1" fill="#777"/><rect x="7" y="6" width="1" height="1" fill="#fff"/><rect x="2" y="7" width="1" height="1" fill="#777"/><rect x="3" y="7" width="1" height="1" fill="#777"/><rect x="4" y="7" width="1" height="1" fill="#777"/><rect x="5" y="7" width="1" height="1" fill="#777"/><rect x="6" y="7" width="1" height="1" fill="#fff"/><rect x="4" y="8" width="1" height="1" fill="#fff"/></g><text x="100" y="76" text-anchor="middle">Waxing crescent</text><g transform="translate(146 23) scale(4)"><rect x="4" y="0" width="1" height="1" fill="#fff"/><rect x="2" y="1" width="1" height="1" fill="#777"/><rect x="3" y="1" width="1" height="1" fill="#777"/><rect x="4" y="1" width="1" height="1" fill="#fff"/><rect x="5" y="1" width="1" height="1" fill="#fff"/><rect x="6" y="1" width="1" height="1" fill="#fff"/><rect x="1" y="2" width="1" height="1" fill="#777"/><rect x="2" y="2" width="1" height="1" fill="#777"/><rect x="3" y="2" width="1" height="1" fill="#777"/><rect x="4" y="2" width="1" height="1" fill="#fff"/><rect x="5" y="2" width="1" height="1" fill="#fff"/><rect x="6" y="2" width="1" height="1" fill="#fff"/><rect x="7" y="2" width="1" height="1" fill="#fff"/><rect x="1" y="3" width="1" height="1" fill="#777"/><rect x="2" y="3" width="1" height="1" fill="#777"/><rect x="3" y="3" width="1" height="1" fill="#777"/><rect x="4" y="3" width="1" height="1" fill="#fff"/><rect x="5" y="3" width="1" height="1" fill="#fff"/><rect x="6" y="3" width="1" height="1" fill="#fff"/><rect x="7" y="3" width="1" height="1" fill="#fff"/><rect x="0" y="4" width="1" height="1" fill="#777"/><rect x="1" y="4" width="1" height="1" fill="#777"/><rect x="2" y="4" width="1" height="1" fill="#777"/><rect x="3" y="4" width="1" height="1" fill="#777"/><rect x="4" y="4" width="1" height="1" fill="#fff"/><rect x="5" y="4" width="1" height="1" fill="#fff"/><rect x="6" y="4" width="1" height="1" fill="#fff"/><rect x="7" y="4" width="1" height="1" fill="#fff"/><rect x="8" y="4" width="1" height="1" fill="#fff"/><rect x="1" y="5" width="1" height="1" fill="#777"/><rect x="2" y="5" width="1" height="1" fill="#777"/><rect x="3" y="5" width="1" height="1" fill="#777"/><rect x="4" y="5" width="1" height="1" fill="#fff"/><rect x="5" y="5" width="1" height="1" fill="#fff"/><rect x="6" y="5" width="1" height="1" fill="#fff"/><rect x="7" y="5" width="1" height="1" fill="#fff"/><rect x="1" y="6" width="1" height="1" fill="#777"/><rect x="2" y="6" width="1" height="1" fill="#777"/><rect x="3" y="6" width="1" height="1" fill="#777"/><rect x="4" y="6" width="1" height="1" fill="#fff"/><rect x="5" y="6" width="1" height="1" fill="#fff"/><rect x="6" y="6" width="1" height="1" fill="#fff"/><rect x="7" y="6" width="1" height="1" fill="#fff"/><rect x="2" y="7" width="1" height="1" fill="#777"/><rect x="3" y="7" width="1" height="1" fill="#777"/><rect x="4" y="7" width="1" height="1" fill="#fff"/><rect x="5" y="7" width="1" height="1" fill="#fff"/><rect x="6" y="7" width="1" height="1" fill="#fff"/><rect x="4" y="8" width="1" height="1" fill="#fff"/></g><text x="164" y="76" text-anchor="middle">First quarter</text><g transform="translate(210 23) scale(4)"><rect x="4" y="0" width="1" height="1" fill="#fff"/><rect x="2" y="1" width="1" height="1" fill="#fff"/><rect x="3" y="1" width="1" height="1" fill="#fff"/><rect x="4" y="1" width="1" height="1" fill="#fff"/><rect x="5" y="1" width="1" height="1" fill="#fff"/><rect x="6" y="1" width="1" height="1" fill="#fff"/><rect x="1" y="2" width="1" height="1" fill="#777"/><rect x="2" y="2" width="1" height="1" fill="#fff"/><rect x="3" y="2" width="1" height="1" fill="#fff"/><rect x="4" y="2" width="1" height="1" fill="#fff"/><rect x="5" y="2" width="1" height="1" fill="#fff"/><rect x="6" y="2" width="1" height="1" fill="#fff"/><rect x="7" y="2" width="1" height="1" fill="#fff"/><rect x="1" y="3" width="1" height="1" fill="#777"/><rect x="2" y="3" width="1" height="1" fill="#fff"/><rect x="3" y="3" width="1" height="1" fill="#fff"/><rect x="4" y="3" width="1" height="1" fill="#fff"/><rect x="5" y="3" width="1" height="1" fill="#fff"/><rect x="6" y="3" width="1" height="1" fill="#fff"/><rect x="7" y="3" width="1" height="1" fill="#fff"/><rect x="0" y="4" width="1" height="1" fill="#777"/><rect x="1" y="4" width="1" height="1" fill="#fff"/><rect x="2" y="4" width="1" height="1" fill="#fff"/><rect x="3" y="4" width="1" height="1" fill="#fff"/><rect x="4" y="4" width="1" height="1" fill="#fff"/><rect x="5" y="4" width="1" height="1" fill="#fff"/><rect x="6" y="4" width="1" height="1" fill="#fff"/><rect x="7" y="4" width="1" height="1" fill="#fff"/><rect x="8" y="4" width="1" height="1" fill="#fff"/><rect x="1" y="5" width="1" height="1" fill="#777"/><rect x="2" y="5" width="1" height="1" fill="#fff"/><rect x="3" y="5" width="1" height="1" fill="#fff"/><rect x="4" y="5" width="1" height="1" fill="#fff"/><rect x="5" y="5" width="1" height="1" fill="#fff"/><rect x="6" y="5" width="1" height="1" fill="#fff"/><rect x="7" y="5" width="1" height="1" fill="#fff"/><rect x="1" y="6" width="1" height="1" fill="#777"/><rect x="2" y="6" width="1" height="1" fill="#fff"/><rect x="3" y="6" width="1" height="1" fill="#fff"/><rect x="4" y="6" width="1" height="1" fill="#fff"/><rect x="5" y="6" width="1" height="1" fill="#fff"/><rect x="6" y="6" width="1" height="1" fill="#fff"/><rect x="7" y="6" width="1" height="1" fill="#fff"/><rect x="2" y="7" width="1" height="1" fill="#fff"/><rect x="3" y="7" width="1" height="1" fill="#fff"/><rect x="4" y="7" width="1" height="1" fill="#fff"/><rect x="5" y="7" width="1" height="1" fill="#fff"/><rect x="6" y="7" width="1" height="1" fill="#fff"/><rect x="4" y="8" width="1" height="1" fill="#fff"/></g><text x="228" y="76" text-anchor="middle">Waxing gibbous</text><g transform="translate(274 23) scale(4)"><rect x="4" y="0" width="1" height="1" fill="#fff"/><rect x="2" y="1" width="1" height="1" fill="#fff"/><rect x="3" y="1" width="1" height="1" fill="#fff"/><rect x="4" y="1" width="1" height="1" fill="#fff"/><rect x="5" y="1" width="1" height="1" fill="#fff"/><rect x="6" y="1" width="1" height="1" fill="#fff"/><rect x="1" y="2" width="1" height="1" fill="#fff"/><rect x="2" y="2" width="1" height="1" fill="#fff"/><rect x="3" y="2" width="1" height="1" fill="#fff"/><rect x="4" y="2" width="1" height="1" fill="#fff"/><rect x="5" y="2" width="1" height="1" fill="#fff"/><rect x="6" y="2" width="1" height="1" fill="#fff"/><rect x="7" y="2" width="1" height="1" fill="#fff"/><rect x="1" y="3" width="1" height="1" fill="#fff"/><rect x="2" y="3" width="1" height="1" fill="#fff"/><rect x="3" y="3" width="1" height="1" fill="#fff"/><rect x="4" y="3" width="1" height="1" fill="#fff"/><rect x="5" y="3" width="1" height="1" fill="#fff"/><rect x="6" y="3" width="1" height="1" fill="#fff"/><rect x="7" y="3" width="1" height="1" fill="#fff"/><rect x="0" y="4" width="1" height="1" fill="#fff"/><rect x="1" y="4" width="1" height="1" fill="#fff"/><rect x="2" y="4" width="1" height="1" fill="#fff"/><rect x="3" y="4" width="1" height="1" fill="#fff"/><rect x="4" y="4" width="1" height="1" fill="#fff"/><rect x="5" y="4" width="1" height="1" fill="#fff"/><rect x="6" y="4" width="1" height="1" fill="#fff"/><rect x="7" y="4" width="1" height="1" fill="#fff"/><rect x="8" y="4" width="1" height="1" fill="#fff"/><rect x="1" y="5" width="1" height="1" fill="#fff"/><rect x="2" y="5" width="1" height="1" fill="#fff"/><rect x="3" y="5" width="1" height="1" fill="#fff"/><rect x="4" y="5" width="1" height="1" fill="#fff"/><rect x="5" y="5" width="1" height="1" fill="#fff"/><rect x="6" y="5" width="1" height="1" fill="#fff"/><rect x="7" y="5" width="1" height="1" fill="#fff"/><rect x="1" y="6" width="1" height="1" fill="#fff"/><rect x="2" y="6" width="1" height="1" fill="#fff"/><rect x="3" y="6" width="1" height="1" fill="#fff"/><rect x="4" y="6" width="1" height="1" fill="#fff"/><rect x="5" y="6" width="1" height="1" fill="#fff"/><rect x="6" y="6" width="1" height="1" fill="#fff"/><rect x="7" y="6" width="1" height="1" fill="#fff"/><rect x="2" y="7" width="1" height="1" fill="#fff"/><rect x="3" y="7" width="1" height="1" fill="#fff"/><rect x="4" y="7" width="1" height="1" fill="#fff"/><rect x="5" y="7" width="1" height="1" fill="#fff"/><rect x="6" y="7" width="1" height="1" fill="#fff"/><rect x="4" y="8" width="1" height="1" fill="#fff"/></g><text x="292" y="76" text-anchor="middle">Full moon</text><g transform="translate(338 23) scale(4)"><rect x="4" y="0" width="1" height="1" fill="#fff"/><rect x="2" y="1" width="1" height="1" fill="#fff"/><rect x="3" y="1" width="1" height="1" fill="#fff"/><rect x="4" y="1" width="1" height="1" fill="#fff"/><rect x="5" y="1" width="1" height="1" fill="#fff"/><rect x="6" y="1" width="1" height="1" fill="#fff"/><rect x="1" y="2" width="1" height="1" fill="#fff"/><rect x="2" y="2" width="1" height="1" fill="#fff"/><rect x="3" y="2" width="1" height="1" fill="#fff"/><rect x="4" y="2" width="1" height="1" fill="#fff"/><rect x="5" y="2" width="1" height="1" fill="#fff"/><rect x="6" y="2" width="1" height="1" fill="#fff"/><rect x="7" y="2" width="1" height="1" fill="#777"/><rect x="1" y="3" width="1" height="1" fill="#fff"/><rect x="2" y="3" width="1" height="1" fill="#fff"/><rect x="3" y="3" width="1" height="1" fill="#fff"/><rect x="4" y="3" width="1" height="1" fill="#fff"/><rect x="5" y="3" width="1" height="1" fill="#fff"/><rect x="6" y="3" width="1" height="1" fill="#fff"/><rect x="7" y="3" width="1" height="1" fill="#777"/><rect x="0" y="4" width="1" height="1" fill="#fff"/><rect x="1" y="4" width="1" height="1" fill="#fff"/><rect x="2" y="4" width="1" height="1" fill="#fff"/><rect x="3" y="4" width="1" height="1" fill="#fff"/><rect x="4" y="4" width="1" height="1" fill="#fff"/><rect x="5" y="4" width="1" height="1" fill="#fff"/><rect x="6" y="4" width="1" height="1" fill="#fff"/><rect x="7" y="4" width="1" height="1" fill="#fff"/><rect x="8" y="4" width="1" height="1" fill="#777"/><rect x="1" y="5" width="1" height="1" fill="#fff"/><rect x="2" y="5" width="1" height="1" fill="#fff"/><rect x="3" y="5" width="1" height="1" fill="#fff"/><rect x="4" y="5" width="1" height="1" fill="#fff"/><rect x="5" y="5" width="1" height="1" fill="#fff"/><rect x="6" y="5" width="1" height="1" fill="#fff"/><rect x="7" y="5" width="1" height="1" fill="#777"/><rect x="1" y="6" width="1" height="1" fill="#fff"/><rect x="2" y="6" width="1" height="1" fill="#fff"/><rect x="3" y="6" width="1" height="1" fill="#fff"/><rect x="4" y="6" width="1" height="1" fill="#fff"/><rect x="5" y="6" width="1" height="1" fill="#fff"/><rect x="6" y="6" width="1" height="1" fill="#fff"/><rect x="7" y="6" width="1" height="1" fill="#777"/><rect x="2" y="7" width="1" height="1" fill="#fff"/><rect x="3" y="7" width="1" height="1" fill="#fff"/><rect x="4" y="7" width="1" height="1" fill="#fff"/><rect x="5" y="7" width="1" height="1" fill="#fff"/><rect x="6" y="7" width="1" height="1" fill="#fff"/><rect x="4" y="8" width="1" height="1" fill="#fff"/></g><text x="356" y="76" text-anchor="middle">Waning gibbous</text><g transform="translate(402 23) scale(4)"><rect x="4" y="0" width="1" height="1" fill="#fff"/><rect x="2" y="1" width="1" height="1" fill="#fff"/><rect x="3" y="1" width="1" height="1" fill="#fff"/><rect x="4" y="1" width="1" height="1" fill="#fff"/><rect x="5" y="1" width="1" height="1" fill="#777"/><rect x="6" y="1" width="1" height="1" fill="#777"/><rect x="1" y="2" width="1" height="1" fill="#fff"/><rect x="2" y="2" width="1" height="1" fill="#fff"/><rect x="3" y="2" width="1" height="1" fill="#fff"/><rect x="4" y="2" width="1" height="1" fill="#fff"/><rect x="5" y="2" width="1" height="1" fill="#777"/><rect x="6" y="2" width="1" height="1" fill="#777"/><rect x="7" y="2" width="1" height="1" fill="#777"/><rect x="1" y="3" width="1" height="1" fill="#fff"/><rect x="2" y="3" width="1" height="1" fill="#fff"/><rect x="3" y="3" width="1" height="1" fill="#fff"/><rect x="4" y="3" width="1" height="1" fill="#fff"/><rect x="5" y="3" width="1" height="1" fill="#777"/><rect x="6" y="3" width="1" height="1" fill="#777"/><rect x="7" y="3" width="1" height="1" fill="#777"/><rect x="0" y="4" width="1" height="1" fill="#fff"/><rect x="1" y="4" width="1" height="1" fill="#fff"/><rect x="2" y="4" width="1" height="1" fill="#fff"/><rect x="3" y="4" width="1" height="1" fill="#fff"/><rect x="4" y="4" width="1" height="1" fill="#fff"/><rect x="5" y="4" width="1" height="1" fill="#777"/><rect x="6" y="4" width="1" height="1" fill="#777"/><rect x="7" y="4" width="1" height="1" fill="#777"/><rect x="8" y="4" width="1" height="1" fill="#777"/><rect x="1" y="5" width="1" height="1" fill="#fff"/><rect x="2" y="5" width="1" height="1" fill="#fff"/><rect x="3" y="5" width="1" height="1" fill="#fff"/><rect x="4" y="5" width="1" height="1" fill="#fff"/><rect x="5" y="5" width="1" height="1" fill="#777"/><rect x="6" y="5" width="1" height="1" fill="#777"/><rect x="7" y="5" width="1" height="1" fill="#777"/><rect x="1" y="6" width="1" height="1" fill="#fff"/><rect x="2" y="6" width="1" height="1" fill="#fff"/><rect x="3" y="6" width="1" height="1" fill="#fff"/><rect x="4" y="6" width="1" height="1" fill="#fff"/><rect x="5" y="6" width="1" height="1" fill="#777"/><rect x="6" y="6" width="1" height="1" fill="#777"/><rect x="7" y="6" width="1" height="1" fill="#777"/><rect x="2" y="7" width="1" height="1" fill="#fff"/><rect x="3" y="7" width="1" height="1" fill="#fff"/><rect x="4" y="7" width="1" height="1" fill="#fff"/><rect x="5" y="7" width="1" height="1" fill="#777"/><rect x="6" y="7" width="1" height="1" fill="#777"/><rect x="4" y="8" width="1" height="1" fill="#fff"/></g><text x="420" y="76" text-anchor="middle">Last quarter</text><g transform="translate(466 23) scale(4)"><rect x="4" y="0" width="1" height="1" fill="#fff"/><rect x="2" y="1" width="1" height="1" fill="#fff"/><rect x="3" y="1" width="1" height="1" fill="#777"/><rect x="4" y="1" width="1" height="1" fill="#777"/><rect x="5" y="1" width="1" height="1" fill="#777"/><rect x="6" y="1" width="1" height="1" fill="#777"/><rect x="1" y="2" width="1" height="1" fill="#fff"/><rect x="2" y="2" width="1" height="1" fill="#777"/><rect x="3" y="2" width="1" height="1" fill="#777"/><rect x="4" y="2" width="1" height="1" fill="#777"/><rect x="5" y="2" width="1" height="1" fill="#777"/><rect x="6" y="2" width="1" height="1" fill="#777"/><rect x="7" y="2" width="1" height="1" fill="#777"/><rect x="1" y="3" width="1" height="1" fill="#fff"/><rect x="2" y="3" width="1" height="1" fill="#777"/><rect x="3" y="3" width="1" height="1" fill="#777"/><rect x="4" y="3" width="1" height="1" fill="#777"/><rect x="5" y="3" width="1" height="1" fill="#777"/><rect x="6" y="3" width="1" height="1" fill="#777"/><rect x="7" y="3" width="1" height="1" fill="#777"/><rect x="0" y="4" width="1" height="1" fill="#fff"/><rect x="1" y="4" width="1" height="1" fill="#fff"/><rect x="2" y="4" width="1" height="1" fill="#777"/><rect x="3" y="4" width="1" height="1" fill="#777"/><rect x="4" y="4" width="1" height="1" fill="#777"/><rect x="5" y="4" width="1" height="1" fill="#777"/><rect x="6" y="4" width="1" height="1" fill="#777"/><rect x="7" y="4" width="1" height="1" fill="#777"/><rect x="8" y="4" width="1" height="1" fill="#777"/><rect x="1" y="5" width="1" height="1" fill="#fff"/><rect x="2" y="5" width="1" height="1" fill="#777"/><rect x="3" y="5" width="1" height="1" fill="#777"/><rect x="4" y="5" width="1" height="1" fill="#777"/><rect x="5" y="5" width="1" height="1" fill="#777"/><rect x="6" y="5" width="1" height="1" fill="#777"/><rect x="7" y="5" width="1" height="1" fill="#777"/><rect x="1" y="6" width="1" height="1" fill="#fff"/><rect x="2" y="6" width="1" height="1" fill="#777"/><rect x="3" y="6" width="1" height="1" fill="#777"/><rect x="4" y="6" width="1" height="1" fill="#777"/><rect x="5" y="6" width="1" height="1" fill="#777"/><rect x="6" y="6" width="1" height="1" fill="#777"/><rect x="7" y="6" width="1" height="1" fill="#777"/><rect x="2" y="7" width="1" height="1" fill="#fff"/><rect x="3" y="7" width="1" height="1" fill="#777"/><rect x="4" y="7" width="1" height="1" fill="#777"/><rect x="5" y="7" width="1" height="1" fill="#777"/><rect x="6" y="7" width="1" height="1" fill="#777"/><rect x="4" y="8" width="1" height="1" fill="#fff"/></g><text x="484" y="76" text-anchor="middle">Waning crescent</text><g transform="translate(258 91) scale(2)"><rect x="3" y="0" width="1" height="1" fill="#fff"/><rect x="3" y="1" width="1" height="1" fill="#fff"/><rect x="4" y="1" width="1" height="1" fill="#fff"/><rect x="0" y="2" width="1" height="1" fill="#fff"/><rect x="3" y="2" width="1" height="1" fill="#fff"/><rect x="5" y="2" width="1" height="1" fill="#fff"/><rect x="1" y="3" width="1" height="1" fill="#fff"/><rect x="3" y="3" width="1" height="1" fill="#fff"/><rect x="6" y="3" width="1" height="1" fill="#fff"/><rect x="2" y="4" width="1" height="1" fill="#fff"/><rect x="3" y="4" width="1" height="1" fill="#fff"/><rect x="4" y="4" width="1" height="1" fill="#fff"/><rect x="5" y="4" width="1" height="1" fill="#fff"/><rect x="3" y="5" width="1" height="1" fill="#fff"/><rect x="2" y="6" width="1" height="1" fill="#fff"/><rect x="3" y="6" width="1" height="1" fill="#fff"/><rect x="4" y="6" width="1" height="1" fill="#fff"/><rect x="5" y="6" width="1" height="1" fill="#fff"/><rect x="1" y="7" width="1" height="1" fill="#fff"/><rect x="3" y="7" width="1" height="1" fill="#fff"/><rect x="6" y="7" width="1" height="1" fill="#fff"/><rect x="0" y="8" width="1" height="1" fill="#fff"/><rect x="3" y="8" width="1" height="1" fill="#fff"/><rect x="5" y="8" width="1" height="1" fill="#fff"/><rect x="3" y="9" width="1" height="1" fill="#fff"/><rect x="4" y="9" width="1" height="1" fill="#fff"/><rect x="3" y="10" width="1" height="1" fill="#fff"/></g><text x="281" y="105">Bluetooth connected</text></g></svg>
