<svg xmlns="http://www.w3.org/2000/svg" width="124" height="17" viewBox="0 0 124 17" shape-rendering="crispEdges"><title>Dymaxion — original pixel script</title><desc>Hand-drawn angular script on the watch pixel grid. Apache-2.0.</desc><g fill="#254e42"><rect x="8" y="1" width="1" height="1"/><rect x="9" y="1" width="1" height="1"/><rect x="10" y="1" width="1" height="1"/><rect x="11" y="1" width="1" height="1"/><rect x="12" y="1" width="1" height="1"/><rect x="13" y="1" width="1" height="1"/><rect x="4" y="2" width="1" height="1"/><rect x="5" y="2" width="1" height="1"/><rect x="6" y="2" width="1" height="1"/><rect x="7" y="2" width="1" height="1"/><rect x="8" y="2" width="1" height="1"/><rect x="14" y="2" width="1" height="1"/><rect x="15" y="2" width="1" height="1"/><rect x="3" y="3" width="1" height="1"/><rect x="8" y="3" width="1" height="1"/><rect x="16" y="3" width="1" height="1"/><rect x="17" y="3" width="1" height="1"/><rect x="85" y="3" width="1" height="1"/><rect x="3" y="4" width="1" height="1"/><rect x="7" y="4" width="1" height="1"/><rect x="18" y="4" width="1" height="1"/><rect x="2" y="5" width="1" height="1"/><rect x="7" y="5" width="1" height="1"/><rect x="18" y="5" width="1" height="1"/><rect x="6" y="6" width="1" height="1"/><rect x="18" y="6" width="1" height="1"/><rect x="23" y="6" width="1" height="1"/><rect x="30" y="6" width="1" height="1"/><rect x="37" y="6" width="1" height="1"/><rect x="38" y="6" width="1" height="1"/><rect x="41" y="6" width="1" height="1"/><rect x="42" y="6" width="1" height="1"/><rect x="47" y="6" width="1" height="1"/><rect x="48" y="6" width="1" height="1"/><rect x="58" y="6" width="1" height="1"/><rect x="59" y="6" width="1" height="1"/><rect x="60" y="6" width="1" height="1"/><rect x="61" y="6" width="1" height="1"/><rect x="62" y="6" width="1" height="1"/><rect x="63" y="6" width="1" height="1"/><rect x="64" y="6" width="1" height="1"/><rect x="70" y="6" width="1" height="1"/><rect x="71" y="6" width="1" height="1"/><rect x="72" y="6" width="1" height="1"/><rect x="73" y="6" width="1" height="1"/><rect x="77" y="6" width="1" height="1"/><rect x="84" y="6" width="1" height="1"/><rect x="85" y="6" width="1" height="1"/><rect x="92" y="6" width="1" height="1"/><rect x="93" y="6" width="1" height="1"/><rect x="94" y="6" width="1" height="1"/><rect x="95" y="6" width="1" height="1"/><rect x="96" y="6" width="1" height="1"/><rect x="97" y="6" width="1" height="1"/><rect x="98" y="6" width="1" height="1"/><rect x="105" y="6" width="1" height="1"/><rect x="106" y="6" width="1" height="1"/><rect x="109" y="6" width="1" height="1"/><rect x="110" y="6" width="1" height="1"/><rect x="111" y="6" width="1" height="1"/><rect x="112" y="6" width="1" height="1"/><rect x="6" y="7" width="1" height="1"/><rect x="17" y="7" width="1" height="1"/><rect x="23" y="7" width="1" height="1"/><rect x="29" y="7" width="1" height="1"/><rect x="30" y="7" width="1" height="1"/><rect x="37" y="7" width="1" height="1"/><rect x="38" y="7" width="1" height="1"/><rect x="40" y="7" width="1" height="1"/><rect x="43" y="7" width="1" height="1"/><rect x="44" y="7" width="1" height="1"/><rect x="46" y="7" width="1" height="1"/><rect x="49" y="7" width="1" height="1"/><rect x="50" y="7" width="1" height="1"/><rect x="57" y="7" width="1" height="1"/><rect x="63" y="7" width="1" height="1"/><rect x="64" y="7" width="1" height="1"/><rect x="74" y="7" width="1" height="1"/><rect x="75" y="7" width="1" height="1"/><rect x="76" y="7" width="1" height="1"/><rect x="83" y="7" width="1" height="1"/><rect x="84" y="7" width="1" height="1"/><rect x="91" y="7" width="1" height="1"/><rect x="99" y="7" width="1" height="1"/><rect x="105" y="7" width="1" height="1"/><rect x="106" y="7" width="1" height="1"/><rect x="108" y="7" width="1" height="1"/><rect x="113" y="7" width="1" height="1"/><rect x="6" y="8" width="1" height="1"/><rect x="17" y="8" width="1" height="1"/><rect x="22" y="8" width="1" height="1"/><rect x="29" y="8" width="1" height="1"/><rect x="30" y="8" width="1" height="1"/><rect x="36" y="8" width="1" height="1"/><rect x="37" y="8" width="1" height="1"/><rect x="39" y="8" width="1" height="1"/><rect x="44" y="8" width="1" height="1"/><rect x="45" y="8" width="1" height="1"/><rect x="50" y="8" width="1" height="1"/><rect x="57" y="8" width="1" height="1"/><rect x="63" y="8" width="1" height="1"/><rect x="64" y="8" width="1" height="1"/><rect x="74" y="8" width="1" height="1"/><rect x="75" y="8" width="1" height="1"/><rect x="83" y="8" width="1" height="1"/><rect x="84" y="8" width="1" height="1"/><rect x="91" y="8" width="1" height="1"/><rect x="99" y="8" width="1" height="1"/><rect x="104" y="8" width="1" height="1"/><rect x="105" y="8" width="1" height="1"/><rect x="107" y="8" width="1" height="1"/><rect x="113" y="8" width="1" height="1"/><rect x="5" y="9" width="1" height="1"/><rect x="15" y="9" width="1" height="1"/><rect x="16" y="9" width="1" height="1"/><rect x="22" y="9" width="1" height="1"/><rect x="28" y="9" width="1" height="1"/><rect x="29" y="9" width="1" height="1"/><rect x="36" y="9" width="1" height="1"/><rect x="37" y="9" width="1" height="1"/><rect x="38" y="9" width="1" height="1"/><rect x="43" y="9" width="1" height="1"/><rect x="44" y="9" width="1" height="1"/><rect x="49" y="9" width="1" height="1"/><rect x="56" y="9" width="1" height="1"/><rect x="62" y="9" width="1" height="1"/><rect x="63" y="9" width="1" height="1"/><rect x="73" y="9" width="1" height="1"/><rect x="75" y="9" width="1" height="1"/><rect x="82" y="9" width="1" height="1"/><rect x="83" y="9" width="1" height="1"/><rect x="90" y="9" width="1" height="1"/><rect x="91" y="9" width="1" height="1"/><rect x="98" y="9" width="1" height="1"/><rect x="104" y="9" width="1" height="1"/><rect x="105" y="9" width="1" height="1"/><rect x="106" y="9" width="1" height="1"/><rect x="112" y="9" width="1" height="1"/><rect x="121" y="9" width="1" height="1"/><rect x="122" y="9" width="1" height="1"/><rect x="5" y="10" width="1" height="1"/><rect x="13" y="10" width="1" height="1"/><rect x="14" y="10" width="1" height="1"/><rect x="22" y="10" width="1" height="1"/><rect x="28" y="10" width="1" height="1"/><rect x="29" y="10" width="1" height="1"/><rect x="35" y="10" width="1" height="1"/><rect x="37" y="10" width="1" height="1"/><rect x="43" y="10" width="1" height="1"/><rect x="49" y="10" width="1" height="1"/><rect x="56" y="10" width="1" height="1"/><rect x="57" y="10" width="1" height="1"/><rect x="62" y="10" width="1" height="1"/><rect x="63" y="10" width="1" height="1"/><rect x="71" y="10" width="1" height="1"/><rect x="72" y="10" width="1" height="1"/><rect x="76" y="10" width="1" height="1"/><rect x="82" y="10" width="1" height="1"/><rect x="83" y="10" width="1" height="1"/><rect x="90" y="10" width="1" height="1"/><rect x="92" y="10" width="1" height="1"/><rect x="98" y="10" width="1" height="1"/><rect x="103" y="10" width="1" height="1"/><rect x="105" y="10" width="1" height="1"/><rect x="111" y="10" width="1" height="1"/><rect x="119" y="10" width="1" height="1"/><rect x="120" y="10" width="1" height="1"/><rect x="2" y="11" width="1" height="1"/><rect x="3" y="11" width="1" height="1"/><rect x="4" y="11" width="1" height="1"/><rect x="5" y="11" width="1" height="1"/><rect x="6" y="11" width="1" height="1"/><rect x="7" y="11" width="1" height="1"/><rect x="8" y="11" width="1" height="1"/><rect x="9" y="11" width="1" height="1"/><rect x="10" y="11" width="1" height="1"/><rect x="11" y="11" width="1" height="1"/><rect x="12" y="11" width="1" height="1"/><rect x="13" y="11" width="1" height="1"/><rect x="14" y="11" width="1" height="1"/><rect x="15" y="11" width="1" height="1"/><rect x="16" y="11" width="1" height="1"/><rect x="17" y="11" width="1" height="1"/><rect x="18" y="11" width="1" height="1"/><rect x="19" y="11" width="1" height="1"/><rect x="20" y="11" width="1" height="1"/><rect x="21" y="11" width="1" height="1"/><rect x="23" y="11" width="1" height="1"/><rect x="24" y="11" width="1" height="1"/><rect x="25" y="11" width="1" height="1"/><rect x="26" y="11" width="1" height="1"/><rect x="27" y="11" width="1" height="1"/><rect x="29" y="11" width="1" height="1"/><rect x="30" y="11" width="1" height="1"/><rect x="31" y="11" width="1" height="1"/><rect x="32" y="11" width="1" height="1"/><rect x="33" y="11" width="1" height="1"/><rect x="34" y="11" width="1" height="1"/><rect x="35" y="11" width="1" height="1"/><rect x="50" y="11" width="1" height="1"/><rect x="51" y="11" width="1" height="1"/><rect x="52" y="11" width="1" height="1"/><rect x="53" y="11" width="1" height="1"/><rect x="54" y="11" width="1" height="1"/><rect x="55" y="11" width="1" height="1"/><rect x="58" y="11" width="1" height="1"/><rect x="59" y="11" width="1" height="1"/><rect x="60" y="11" width="1" height="1"/><rect x="61" y="11" width="1" height="1"/><rect x="62" y="11" width="1" height="1"/><rect x="63" y="11" width="1" height="1"/><rect x="64" y="11" width="1" height="1"/><rect x="65" y="11" width="1" height="1"/><rect x="66" y="11" width="1" height="1"/><rect x="67" y="11" width="1" height="1"/><rect x="68" y="11" width="1" height="1"/><rect x="69" y="11" width="1" height="1"/><rect x="70" y="11" width="1" height="1"/><rect x="77" y="11" width="1" height="1"/><rect x="78" y="11" width="1" height="1"/><rect x="79" y="11" width="1" height="1"/><rect x="80" y="11" width="1" height="1"/><rect x="81" y="11" width="1" height="1"/><rect x="84" y="11" width="1" height="1"/><rect x="85" y="11" width="1" height="1"/><rect x="86" y="11" width="1" height="1"/><rect x="87" y="11" width="1" height="1"/><rect x="88" y="11" width="1" height="1"/><rect x="89" y="11" width="1" height="1"/><rect x="93" y="11" width="1" height="1"/><rect x="94" y="11" width="1" height="1"/><rect x="95" y="11" width="1" height="1"/><rect x="96" y="11" width="1" height="1"/><rect x="97" y="11" width="1" height="1"/><rect x="98" y="11" width="1" height="1"/><rect x="99" y="11" width="1" height="1"/><rect x="100" y="11" width="1" height="1"/><rect x="101" y="11" width="1" height="1"/><rect x="102" y="11" width="1" height="1"/><rect x="103" y="11" width="1" height="1"/><rect x="112" y="11" width="1" height="1"/><rect x="113" y="11" width="1" height="1"/><rect x="114" y="11" width="1" height="1"/><rect x="115" y="11" width="1" height="1"/><rect x="116" y="11" width="1" height="1"/><rect x="117" y="11" width="1" height="1"/><rect x="118" y="11" width="1" height="1"/><rect x="4" y="12" width="1" height="1"/><rect x="26" y="12" width="1" height="1"/><rect x="27" y="12" width="1" height="1"/><rect x="28" y="12" width="1" height="1"/><rect x="29" y="12" width="1" height="1"/><rect x="24" y="13" width="1" height="1"/><rect x="25" y="13" width="1" height="1"/><rect x="28" y="13" width="1" height="1"/><rect x="23" y="14" width="1" height="1"/><rect x="28" y="14" width="1" height="1"/><rect x="22" y="15" width="1" height="1"/><rect x="27" y="15" width="1" height="1"/><rect x="23" y="16" width="1" height="1"/><rect x="24" y="16" width="1" height="1"/><rect x="25" y="16" width="1" height="1"/><rect x="26" y="16" width="1" height="1"/></g></svg>
